<svg width="172" height="40" viewBox="0 0 172 40" fill="none" xmlns="http://www.w3.org/2000/svg">
<path d="M52.858 28.192C53.562 28.192 54.138 28.1387 54.586 28.032C55.0553 27.904 55.4287 27.744 55.706 27.552C55.9833 27.3387 56.1753 27.0933 56.282 26.816C56.3887 26.5387 56.442 26.2293 56.442 25.888C56.442 25.1627 56.1007 24.5653 55.418 24.096C54.7353 23.6053 53.562 23.0827 51.898 22.528C51.1727 22.272 50.4473 21.984 49.722 21.664C48.9967 21.3227 48.346 20.9067 47.77 20.416C47.194 19.904 46.7247 19.296 46.362 18.592C45.9993 17.8667 45.818 16.992 45.818 15.968C45.818 14.944 46.01 14.0267 46.394 13.216C46.778 12.384 47.322 11.68 48.026 11.104C48.73 10.528 49.5833 10.0907 50.586 9.792C51.5887 9.472 52.7193 9.312 53.978 9.312C55.4713 9.312 56.762 9.472 57.85 9.792C58.938 10.112 59.834 10.464 60.538 10.848L59.098 14.784C58.4793 14.464 57.786 14.1867 57.018 13.952C56.2713 13.696 55.3647 13.568 54.298 13.568C53.1033 13.568 52.2393 13.7387 51.706 14.08C51.194 14.4 50.938 14.9013 50.938 15.584C50.938 15.9893 51.034 16.3307 51.226 16.608C51.418 16.8853 51.6847 17.1413 52.026 17.376C52.3887 17.5893 52.794 17.792 53.242 17.984C53.7113 18.1547 54.2233 18.336 54.778 18.528C55.93 18.9547 56.9327 19.3813 57.786 19.808C58.6393 20.2133 59.3433 20.6933 59.898 21.248C60.474 21.8027 60.9007 22.4533 61.178 23.2C61.4553 23.9467 61.594 24.8533 61.594 25.92C61.594 27.9893 60.8687 29.6 59.418 30.752C57.9673 31.8827 55.7807 32.448 52.858 32.448C51.8767 32.448 50.9913 32.384 50.202 32.256C49.4127 32.1493 48.7087 32.0107 48.09 31.84C47.4927 31.6693 46.97 31.488 46.522 31.296C46.0953 31.104 45.7327 30.9227 45.434 30.752L46.842 26.784C47.5033 27.1467 48.314 27.4773 49.274 27.776C50.2553 28.0533 51.45 28.192 52.858 28.192ZM64.315 23.584C64.315 22.368 64.507 21.2267 64.891 20.16C65.2963 19.072 65.8723 18.1333 66.619 17.344C67.3657 16.5333 68.2723 15.8933 69.339 15.424C70.4057 14.9547 71.6217 14.72 72.987 14.72C73.883 14.72 74.7043 14.8053 75.451 14.976C76.1977 15.1253 76.923 15.3493 77.627 15.648L76.635 19.456C76.187 19.2853 75.6963 19.136 75.163 19.008C74.6297 18.88 74.0323 18.816 73.371 18.816C71.963 18.816 70.907 19.2533 70.203 20.128C69.5203 21.0027 69.179 22.1547 69.179 23.584C69.179 25.0987 69.499 26.272 70.139 27.104C70.8003 27.936 71.9417 28.352 73.563 28.352C74.139 28.352 74.7577 28.2987 75.419 28.192C76.0803 28.0853 76.6883 27.9147 77.243 27.68L77.915 31.584C77.3603 31.8187 76.667 32.0213 75.835 32.192C75.003 32.3627 74.0857 32.448 73.083 32.448C71.547 32.448 70.2243 32.224 69.115 31.776C68.0057 31.3067 67.0883 30.6773 66.363 29.888C65.659 29.0987 65.1363 28.1707 64.795 27.104C64.475 26.016 64.315 24.8427 64.315 23.584ZM91.259 19.392C90.8323 19.2853 90.331 19.1787 89.755 19.072C89.179 18.944 88.5603 18.88 87.899 18.88C87.6003 18.88 87.2377 18.912 86.811 18.976C86.4057 19.0187 86.0963 19.072 85.883 19.136V32H81.115V16.064C81.9683 15.7653 82.971 15.488 84.123 15.232C85.2963 14.9547 86.5977 14.816 88.027 14.816C88.283 14.816 88.5923 14.8373 88.955 14.88C89.3177 14.9013 89.6803 14.944 90.043 15.008C90.4057 15.0507 90.7683 15.1147 91.131 15.2C91.4937 15.264 91.803 15.3493 92.059 15.456L91.259 19.392ZM93.5025 23.712C93.5025 22.2187 93.7265 20.9173 94.1745 19.808C94.6438 18.6773 95.2518 17.7387 95.9985 16.992C96.7452 16.2453 97.5985 15.68 98.5585 15.296C99.5398 14.912 100.543 14.72 101.567 14.72C103.956 14.72 105.844 15.456 107.231 16.928C108.617 18.3787 109.311 20.5227 109.311 23.36C109.311 23.6373 109.3 23.9467 109.279 24.288C109.257 24.608 109.236 24.896 109.215 25.152H98.3985C98.5052 26.1333 98.9638 26.912 99.7745 27.488C100.585 28.064 101.673 28.352 103.039 28.352C103.913 28.352 104.767 28.2773 105.599 28.128C106.452 27.9573 107.145 27.7547 107.679 27.52L108.319 31.392C108.063 31.52 107.721 31.648 107.295 31.776C106.868 31.904 106.388 32.0107 105.855 32.096C105.343 32.2027 104.788 32.288 104.191 32.352C103.593 32.416 102.996 32.448 102.399 32.448C100.884 32.448 99.5612 32.224 98.4305 31.776C97.3212 31.328 96.3932 30.72 95.6465 29.952C94.9212 29.1627 94.3772 28.2347 94.0145 27.168C93.6732 26.1013 93.5025 24.9493 93.5025 23.712ZM104.703 21.888C104.681 21.4827 104.607 21.088 104.479 20.704C104.372 20.32 104.191 19.9787 103.935 19.68C103.7 19.3813 103.391 19.136 103.007 18.944C102.644 18.752 102.185 18.656 101.631 18.656C101.097 18.656 100.639 18.752 100.255 18.944C99.8705 19.1147 99.5505 19.3493 99.2945 19.648C99.0385 19.9467 98.8358 20.2987 98.6865 20.704C98.5585 21.088 98.4625 21.4827 98.3985 21.888H104.703ZM112.19 23.712C112.19 22.2187 112.414 20.9173 112.862 19.808C113.331 18.6773 113.939 17.7387 114.686 16.992C115.433 16.2453 116.286 15.68 117.246 15.296C118.227 14.912 119.23 14.72 120.254 14.72C122.643 14.72 124.531 15.456 125.918 16.928C127.305 18.3787 127.998 20.5227 127.998 23.36C127.998 23.6373 127.987 23.9467 127.966 24.288C127.945 24.608 127.923 24.896 127.902 25.152H117.086C117.193 26.1333 117.651 26.912 118.462 27.488C119.273 28.064 120.361 28.352 121.726 28.352C122.601 28.352 123.454 28.2773 124.286 28.128C125.139 27.9573 125.833 27.7547 126.366 27.52L127.006 31.392C126.75 31.52 126.409 31.648 125.982 31.776C125.555 31.904 125.075 32.0107 124.542 32.096C124.03 32.2027 123.475 32.288 122.878 32.352C122.281 32.416 121.683 32.448 121.086 32.448C119.571 32.448 118.249 32.224 117.118 31.776C116.009 31.328 115.081 30.72 114.334 29.952C113.609 29.1627 113.065 28.2347 112.702 27.168C112.361 26.1013 112.19 24.9493 112.19 23.712ZM123.39 21.888C123.369 21.4827 123.294 21.088 123.166 20.704C123.059 20.32 122.878 19.9787 122.622 19.68C122.387 19.3813 122.078 19.136 121.694 18.944C121.331 18.752 120.873 18.656 120.318 18.656C119.785 18.656 119.326 18.752 118.942 18.944C118.558 19.1147 118.238 19.3493 117.982 19.648C117.726 19.9467 117.523 20.2987 117.374 20.704C117.246 21.088 117.15 21.4827 117.086 21.888H123.39ZM131.678 15.744C132.488 15.5093 133.534 15.296 134.814 15.104C136.094 14.8907 137.438 14.784 138.845 14.784C140.275 14.784 141.459 14.976 142.398 15.36C143.358 15.7227 144.115 16.2453 144.67 16.928C145.224 17.6107 145.619 18.4213 145.854 19.36C146.088 20.2987 146.206 21.344 146.206 22.496V32H141.438V23.072C141.438 21.536 141.235 20.448 140.83 19.808C140.424 19.168 139.667 18.848 138.558 18.848C138.216 18.848 137.854 18.8693 137.47 18.912C137.086 18.9333 136.744 18.9653 136.446 19.008V32H131.678V15.744ZM155.289 32H150.521V15.168H155.289V32ZM155.737 10.304C155.737 11.1787 155.449 11.872 154.873 12.384C154.319 12.8747 153.657 13.12 152.889 13.12C152.121 13.12 151.449 12.8747 150.873 12.384C150.319 11.872 150.041 11.1787 150.041 10.304C150.041 9.42933 150.319 8.74667 150.873 8.256C151.449 7.744 152.121 7.488 152.889 7.488C153.657 7.488 154.319 7.744 154.873 8.256C155.449 8.74667 155.737 9.42933 155.737 10.304ZM159.611 10.976L164.379 10.208V15.168H170.107V19.136H164.379V25.056C164.379 26.0587 164.55 26.8587 164.891 27.456C165.254 28.0533 165.969 28.352 167.035 28.352C167.547 28.352 168.07 28.3093 168.603 28.224C169.158 28.1173 169.659 27.9787 170.107 27.808L170.779 31.52C170.203 31.7547 169.563 31.9573 168.859 32.128C168.155 32.2987 167.291 32.384 166.267 32.384C164.966 32.384 163.889 32.2133 163.035 31.872C162.182 31.5093 161.499 31.0187 160.987 30.4C160.475 29.76 160.113 28.992 159.899 28.096C159.707 27.2 159.611 26.208 159.611 25.12V10.976Z" fill="#061BB0"/>
<path d="M20.0333 37.5335C29.7167 37.5335 37.5667 29.6835 37.5667 20.0001C37.5667 10.3167 29.7167 2.4668 20.0333 2.4668C10.3499 2.4668 2.5 10.3167 2.5 20.0001C2.5 29.6835 10.3499 37.5335 20.0333 37.5335Z" stroke="#061BB0" stroke-width="2.56" stroke-miterlimit="10"/>
<path d="M20.0329 13.6167C21.7911 13.6167 23.2163 12.1914 23.2163 10.4333C23.2163 8.67523 21.7911 7.25 20.0329 7.25C18.2748 7.25 16.8496 8.67523 16.8496 10.4333C16.8496 12.1914 18.2748 13.6167 20.0329 13.6167Z" stroke="#061BB0" stroke-width="2.56" stroke-miterlimit="10"/>
<path d="M20.0329 32.7495C21.7911 32.7495 23.2163 31.3243 23.2163 29.5661C23.2163 27.808 21.7911 26.3828 20.0329 26.3828C18.2748 26.3828 16.8496 27.808 16.8496 29.5661C16.8496 31.3243 18.2748 32.7495 20.0329 32.7495Z" stroke="#061BB0" stroke-width="2.56" stroke-miterlimit="10"/>
<path d="M20.0329 32.7495C21.7911 32.7495 23.2163 31.3243 23.2163 29.5661C23.2163 27.808 21.7911 26.3828 20.0329 26.3828C18.2748 26.3828 16.8496 27.808 16.8496 29.5661C16.8496 31.3243 18.2748 32.7495 20.0329 32.7495Z" stroke="#061BB0" stroke-width="2.56" stroke-miterlimit="10"/>
<path d="M10.4665 23.1831C12.2246 23.1831 13.6499 21.7578 13.6499 19.9997C13.6499 18.2416 12.2246 16.8164 10.4665 16.8164C8.70843 16.8164 7.2832 18.2416 7.2832 19.9997C7.2832 21.7578 8.70843 23.1831 10.4665 23.1831Z" stroke="#061BB0" stroke-width="2.56" stroke-miterlimit="10"/>
<path d="M29.6003 23.1831C31.3584 23.1831 32.7837 21.7578 32.7837 19.9997C32.7837 18.2416 31.3584 16.8164 29.6003 16.8164C27.8422 16.8164 26.417 18.2416 26.417 19.9997C26.417 21.7578 27.8422 23.1831 29.6003 23.1831Z" stroke="#061BB0" stroke-width="2.56" stroke-miterlimit="10"/>
<path d="M29.6003 23.1831C31.3584 23.1831 32.7837 21.7578 32.7837 19.9997C32.7837 18.2416 31.3584 16.8164 29.6003 16.8164C27.8422 16.8164 26.417 18.2416 26.417 19.9997C26.417 21.7578 27.8422 23.1831 29.6003 23.1831Z" stroke="#061BB0" stroke-width="2.56" stroke-miterlimit="10"/>
<path d="M39.1665 37.5332H20.0332" stroke="#061BB0" stroke-width="2.56" stroke-miterlimit="10"/>
<path d="M18.4502 20H21.6335" stroke="#061BB0" stroke-width="2.56" stroke-miterlimit="10"/>
</svg>
