<svg width="247" height="187" viewBox="0 0 247 187" fill="none" xmlns="http://www.w3.org/2000/svg">
<path d="M40.787 180.288C41.843 180.288 42.707 180.208 43.379 180.048C44.083 179.856 44.643 179.616 45.059 179.328C45.475 179.008 45.763 178.64 45.923 178.224C46.083 177.808 46.163 177.344 46.163 176.832C46.163 175.744 45.651 174.848 44.627 174.144C43.603 173.408 41.843 172.624 39.347 171.792C38.259 171.408 37.171 170.976 36.083 170.496C34.995 169.984 34.019 169.36 33.155 168.624C32.291 167.856 31.587 166.944 31.043 165.888C30.499 164.8 30.227 163.488 30.227 161.952C30.227 160.416 30.515 159.04 31.091 157.824C31.667 156.576 32.483 155.52 33.539 154.656C34.595 153.792 35.875 153.136 37.379 152.688C38.883 152.208 40.579 151.968 42.467 151.968C44.707 151.968 46.643 152.208 48.275 152.688C49.907 153.168 51.251 153.696 52.307 154.272L50.147 160.176C49.219 159.696 48.179 159.28 47.027 158.928C45.907 158.544 44.547 158.352 42.947 158.352C41.155 158.352 39.859 158.608 39.059 159.12C38.291 159.6 37.907 160.352 37.907 161.376C37.907 161.984 38.051 162.496 38.339 162.912C38.627 163.328 39.027 163.712 39.539 164.064C40.083 164.384 40.691 164.688 41.363 164.976C42.067 165.232 42.835 165.504 43.667 165.792C45.395 166.432 46.899 167.072 48.179 167.712C49.459 168.32 50.515 169.04 51.347 169.872C52.211 170.704 52.851 171.68 53.267 172.8C53.683 173.92 53.891 175.28 53.891 176.88C53.891 179.984 52.803 182.4 50.627 184.128C48.451 185.824 45.171 186.672 40.787 186.672C39.315 186.672 37.987 186.576 36.803 186.384C35.619 186.224 34.563 186.016 33.635 185.76C32.739 185.504 31.955 185.232 31.283 184.944C30.643 184.656 30.099 184.384 29.651 184.128L31.763 178.176C32.755 178.72 33.971 179.216 35.411 179.664C36.883 180.08 38.675 180.288 40.787 180.288ZM57.9725 173.376C57.9725 171.552 58.2605 169.84 58.8365 168.24C59.4445 166.608 60.3085 165.2 61.4285 164.016C62.5485 162.8 63.9085 161.84 65.5085 161.136C67.1085 160.432 68.9325 160.08 70.9805 160.08C72.3245 160.08 73.5565 160.208 74.6765 160.464C75.7965 160.688 76.8845 161.024 77.9405 161.472L76.4525 167.184C75.7805 166.928 75.0445 166.704 74.2445 166.512C73.4445 166.32 72.5485 166.224 71.5565 166.224C69.4445 166.224 67.8605 166.88 66.8045 168.192C65.7805 169.504 65.2685 171.232 65.2685 173.376C65.2685 175.648 65.7485 177.408 66.7085 178.656C67.7005 179.904 69.4125 180.528 71.8445 180.528C72.7085 180.528 73.6365 180.448 74.6285 180.288C75.6205 180.128 76.5325 179.872 77.3645 179.52L78.3725 185.376C77.5405 185.728 76.5005 186.032 75.2525 186.288C74.0045 186.544 72.6285 186.672 71.1245 186.672C68.8205 186.672 66.8365 186.336 65.1725 185.664C63.5085 184.96 62.1325 184.016 61.0445 182.832C59.9885 181.648 59.2045 180.256 58.6925 178.656C58.2125 177.024 57.9725 175.264 57.9725 173.376ZM98.3885 167.088C97.7485 166.928 96.9965 166.768 96.1325 166.608C95.2685 166.416 94.3405 166.32 93.3485 166.32C92.9005 166.32 92.3565 166.368 91.7165 166.464C91.1085 166.528 90.6445 166.608 90.3245 166.704V186H83.1725V162.096C84.4525 161.648 85.9565 161.232 87.6845 160.848C89.4445 160.432 91.3965 160.224 93.5405 160.224C93.9245 160.224 94.3885 160.256 94.9325 160.32C95.4765 160.352 96.0205 160.416 96.5645 160.512C97.1085 160.576 97.6525 160.672 98.1965 160.8C98.7405 160.896 99.2045 161.024 99.5885 161.184L98.3885 167.088ZM101.754 173.568C101.754 171.328 102.09 169.376 102.762 167.712C103.466 166.016 104.378 164.608 105.498 163.488C106.618 162.368 107.898 161.52 109.338 160.944C110.81 160.368 112.314 160.08 113.85 160.08C117.434 160.08 120.266 161.184 122.346 163.392C124.426 165.568 125.466 168.784 125.466 173.04C125.466 173.456 125.45 173.92 125.418 174.432C125.386 174.912 125.354 175.344 125.322 175.728H109.098C109.258 177.2 109.946 178.368 111.162 179.232C112.378 180.096 114.01 180.528 116.058 180.528C117.37 180.528 118.65 180.416 119.898 180.192C121.178 179.936 122.218 179.632 123.018 179.28L123.978 185.088C123.594 185.28 123.082 185.472 122.442 185.664C121.802 185.856 121.082 186.016 120.282 186.144C119.514 186.304 118.682 186.432 117.786 186.528C116.89 186.624 115.994 186.672 115.098 186.672C112.826 186.672 110.842 186.336 109.146 185.664C107.482 184.992 106.09 184.08 104.97 182.928C103.882 181.744 103.066 180.352 102.522 178.752C102.01 177.152 101.754 175.424 101.754 173.568ZM118.554 170.832C118.522 170.224 118.41 169.632 118.218 169.056C118.058 168.48 117.786 167.968 117.402 167.52C117.05 167.072 116.586 166.704 116.01 166.416C115.466 166.128 114.778 165.984 113.946 165.984C113.146 165.984 112.458 166.128 111.882 166.416C111.306 166.672 110.826 167.024 110.442 167.472C110.058 167.92 109.754 168.448 109.53 169.056C109.338 169.632 109.194 170.224 109.098 170.832H118.554ZM129.785 173.568C129.785 171.328 130.121 169.376 130.793 167.712C131.497 166.016 132.409 164.608 133.529 163.488C134.649 162.368 135.929 161.52 137.369 160.944C138.841 160.368 140.345 160.08 141.881 160.08C145.465 160.08 148.297 161.184 150.377 163.392C152.457 165.568 153.497 168.784 153.497 173.04C153.497 173.456 153.481 173.92 153.449 174.432C153.417 174.912 153.385 175.344 153.353 175.728H137.129C137.289 177.2 137.977 178.368 139.193 179.232C140.409 180.096 142.041 180.528 144.089 180.528C145.401 180.528 146.681 180.416 147.929 180.192C149.209 179.936 150.249 179.632 151.049 179.28L152.009 185.088C151.625 185.28 151.113 185.472 150.473 185.664C149.833 185.856 149.113 186.016 148.313 186.144C147.545 186.304 146.713 186.432 145.817 186.528C144.921 186.624 144.025 186.672 143.129 186.672C140.857 186.672 138.873 186.336 137.177 185.664C135.513 184.992 134.121 184.08 133.001 182.928C131.913 181.744 131.097 180.352 130.553 178.752C130.041 177.152 129.785 175.424 129.785 173.568ZM146.585 170.832C146.553 170.224 146.441 169.632 146.249 169.056C146.089 168.48 145.817 167.968 145.433 167.52C145.081 167.072 144.617 166.704 144.041 166.416C143.497 166.128 142.809 165.984 141.977 165.984C141.177 165.984 140.489 166.128 139.913 166.416C139.337 166.672 138.857 167.024 138.473 167.472C138.089 167.92 137.785 168.448 137.561 169.056C137.369 169.632 137.225 170.224 137.129 170.832H146.585ZM159.016 161.616C160.232 161.264 161.8 160.944 163.72 160.656C165.64 160.336 167.656 160.176 169.768 160.176C171.912 160.176 173.688 160.464 175.096 161.04C176.536 161.584 177.672 162.368 178.504 163.392C179.336 164.416 179.928 165.632 180.28 167.04C180.632 168.448 180.808 170.016 180.808 171.744V186H173.656V172.608C173.656 170.304 173.352 168.672 172.744 167.712C172.136 166.752 171 166.272 169.336 166.272C168.824 166.272 168.28 166.304 167.704 166.368C167.128 166.4 166.616 166.448 166.168 166.512V186H159.016V161.616ZM194.434 186H187.282V160.752H194.434V186ZM195.106 153.456C195.106 154.768 194.674 155.808 193.81 156.576C192.978 157.312 191.986 157.68 190.834 157.68C189.682 157.68 188.674 157.312 187.81 156.576C186.978 155.808 186.562 154.768 186.562 153.456C186.562 152.144 186.978 151.12 187.81 150.384C188.674 149.616 189.682 149.232 190.834 149.232C191.986 149.232 192.978 149.616 193.81 150.384C194.674 151.12 195.106 152.144 195.106 153.456ZM200.917 154.464L208.069 153.312V160.752H216.661V166.704H208.069V175.584C208.069 177.088 208.325 178.288 208.837 179.184C209.381 180.08 210.453 180.528 212.053 180.528C212.821 180.528 213.605 180.464 214.405 180.336C215.237 180.176 215.989 179.968 216.661 179.712L217.669 185.28C216.805 185.632 215.845 185.936 214.789 186.192C213.733 186.448 212.437 186.576 210.901 186.576C208.949 186.576 207.333 186.32 206.053 185.808C204.773 185.264 203.749 184.528 202.981 183.6C202.213 182.64 201.669 181.488 201.349 180.144C201.061 178.8 200.917 177.312 200.917 175.68V154.464Z" fill="#061BB0"/>
<path d="M123.108 121.984C154.579 121.984 180.092 96.4719 180.092 65.0009C180.092 33.5299 154.579 8.01758 123.108 8.01758C91.6373 8.01758 66.125 33.5299 66.125 65.0009C66.125 96.4719 91.6373 121.984 123.108 121.984Z" stroke="#061BB0" stroke-width="6" stroke-miterlimit="10"/>
<path d="M123.109 44.2542C128.822 44.2542 133.454 39.6222 133.454 33.9083C133.454 28.1945 128.822 23.5625 123.109 23.5625C117.395 23.5625 112.763 28.1945 112.763 33.9083C112.763 39.6222 117.395 44.2542 123.109 44.2542Z" stroke="#061BB0" stroke-width="5" stroke-miterlimit="10"/>
<path d="M123.109 106.438C128.822 106.438 133.454 101.806 133.454 96.0919C133.454 90.3781 128.822 85.7461 123.109 85.7461C117.395 85.7461 112.763 90.3781 112.763 96.0919C112.763 101.806 117.395 106.438 123.109 106.438Z" stroke="#061BB0" stroke-width="5" stroke-miterlimit="10"/>
<path d="M123.109 106.438C128.822 106.438 133.454 101.806 133.454 96.0919C133.454 90.3781 128.822 85.7461 123.109 85.7461C117.395 85.7461 112.763 90.3781 112.763 96.0919C112.763 101.806 117.395 106.438 123.109 106.438Z" stroke="#061BB0" stroke-width="5" stroke-miterlimit="10"/>
<path d="M92.0167 75.346C97.7306 75.346 102.363 70.714 102.363 65.0001C102.363 59.2863 97.7306 54.6543 92.0167 54.6543C86.3029 54.6543 81.6709 59.2863 81.6709 65.0001C81.6709 70.714 86.3029 75.346 92.0167 75.346Z" stroke="#061BB0" stroke-width="5" stroke-miterlimit="10"/>
<path d="M154.2 75.346C159.914 75.346 164.546 70.714 164.546 65.0001C164.546 59.2863 159.914 54.6543 154.2 54.6543C148.486 54.6543 143.854 59.2863 143.854 65.0001C143.854 70.714 148.486 75.346 154.2 75.346Z" stroke="#061BB0" stroke-width="5" stroke-miterlimit="10"/>
<path d="M154.2 75.346C159.914 75.346 164.546 70.714 164.546 65.0001C164.546 59.2863 159.914 54.6543 154.2 54.6543C148.486 54.6543 143.854 59.2863 143.854 65.0001C143.854 70.714 148.486 75.346 154.2 75.346Z" stroke="#061BB0" stroke-width="5" stroke-miterlimit="10"/>
<path d="M185.292 121.984H123.108" stroke="#061BB0" stroke-width="5" stroke-miterlimit="10"/>
<path d="M117.963 65H128.309" stroke="#061BB0" stroke-width="5" stroke-miterlimit="10"/>
</svg>
